<svg width="42" height="34" viewBox="0 0 42 34" fill="none" xmlns="http://www.w3.org/2000/svg">
<path d="M29.75 32.75V29.25C29.75 27.3935 29.0125 25.613 27.6997 24.3003C26.387 22.9875 24.6065 22.25 22.75 22.25H8.75C6.89348 22.25 5.11301 22.9875 3.80025 24.3003C2.4875 25.613 1.75 27.3935 1.75 29.25V32.75" stroke="#FFDF6C" stroke-width="2" stroke-linecap="round" stroke-linejoin="round"/>
<path d="M15.75 15.25C19.616 15.25 22.75 12.116 22.75 8.25C22.75 4.38401 19.616 1.25 15.75 1.25C11.884 1.25 8.75 4.38401 8.75 8.25C8.75 12.116 11.884 15.25 15.75 15.25Z" stroke="#FFDF6C" stroke-width="2" stroke-linecap="round" stroke-linejoin="round"/>
<path d="M40.25 32.75V29.25C40.2488 27.6991 39.7326 26.1924 38.7824 24.9666C37.8322 23.7408 36.5017 22.8653 35 22.4775" stroke="#FFDF6C" stroke-width="2" stroke-linecap="round" stroke-linejoin="round"/>
<path d="M28 1.47754C29.5057 1.86307 30.8403 2.73877 31.7934 3.96658C32.7464 5.1944 33.2637 6.70449 33.2637 8.25879C33.2637 9.81309 32.7464 11.3232 31.7934 12.551C30.8403 13.7788 29.5057 14.6545 28 15.04" stroke="#FFDF6C" stroke-width="2" stroke-linecap="round" stroke-linejoin="round"/>
</svg>
